<?xml version="1.0" encoding="UTF-8" standalone="no"?>
<!-- Created with Inkscape (http://www.inkscape.org/) -->

<svg
   xmlns:dc="http://purl.org/dc/elements/1.1/"
   xmlns:cc="http://creativecommons.org/ns#"
   xmlns:rdf="http://www.w3.org/1999/02/22-rdf-syntax-ns#"
   xmlns:svg="http://www.w3.org/2000/svg"
   xmlns="http://www.w3.org/2000/svg"
   xmlns:sodipodi="http://sodipodi.sourceforge.net/DTD/sodipodi-0.dtd"
   xmlns:inkscape="http://www.inkscape.org/namespaces/inkscape"
   width="28.222221mm"
   height="28.222221mm"
   viewBox="0 0 99.999997 99.999993"
   id="svg2"
   version="1.1"
   inkscape:version="0.91 r13725"
   sodipodi:docname="icon_drink.svg">
  <defs
     id="defs4" />
  <sodipodi:namedview
     id="base"
     pagecolor="#ffffff"
     bordercolor="#666666"
     borderopacity="1.0"
     inkscape:pageopacity="0.0"
     inkscape:pageshadow="2"
     inkscape:zoom="2.8"
     inkscape:cx="-3.2423514"
     inkscape:cy="66.424579"
     inkscape:document-units="px"
     inkscape:current-layer="layer1"
     showgrid="false"
     showguides="true"
     inkscape:guide-bbox="true"
     inkscape:window-width="1920"
     inkscape:window-height="1018"
     inkscape:window-x="-8"
     inkscape:window-y="-8"
     inkscape:window-maximized="1"
     fit-margin-top="0"
     fit-margin-left="0"
     fit-margin-right="0"
     fit-margin-bottom="0" />
  <metadata
     id="metadata7">
    <rdf:RDF>
      <cc:Work
         rdf:about="">
        <dc:format>image/svg+xml</dc:format>
        <dc:type
           rdf:resource="http://purl.org/dc/dcmitype/StillImage" />
        <dc:title />
      </cc:Work>
    </rdf:RDF>
  </metadata>
  <g
     inkscape:label="Ebene 1"
     inkscape:groupmode="layer"
     id="layer1"
     transform="translate(751.15625,30.244141)">
    <path
       style="fill:#387025;fill-opacity:1;stroke:none;stroke-width:3;stroke-linecap:round;stroke-miterlimit:4;stroke-dasharray:none;stroke-dashoffset:0;stroke-opacity:1"
       d="M 50 0 A 50 50 0 0 0 0 50 A 50 50 0 0 0 50 100 A 50 50 0 0 0 100 50 A 50 50 0 0 0 50 0 z M 35.263672 11 L 49.980469 11 A 1.50015 1.50015 0 0 1 50.085938 11.001953 A 1.50015 1.50015 0 0 0 50.087891 11.001953 A 1.50015 1.50015 0 0 1 50.146484 11 L 64.861328 11 L 64.861328 27.580078 L 64.851562 27.669922 C 64.042153 34.417352 61.003969 39.125542 58.099609 43.501953 C 55.231239 47.824132 52.513152 51.838361 51.576172 57.523438 L 51.570312 85.994141 L 60.238281 86.001953 A 1.50015 1.50015 0 1 1 60.234375 89.001953 L 50.0625 88.994141 L 39.890625 89.001953 A 1.50015 1.50015 0 1 1 39.888672 86.001953 L 48.556641 85.994141 L 48.548828 57.523438 C 47.611838 51.838366 44.893761 47.824129 42.025391 43.501953 C 39.121031 39.125542 36.084801 34.417352 35.275391 27.669922 L 35.263672 27.580078 L 35.263672 11 z M 50.039062 13.998047 A 1.50015 1.50015 0 0 1 49.980469 14 L 38.263672 14 L 38.263672 27.359375 C 38.996652 33.369584 41.644421 37.500629 44.525391 41.841797 C 46.520831 44.848616 48.61372 47.970725 50.0625 51.75 C 51.51071 47.97057 53.604109 44.848707 55.599609 41.841797 C 58.478909 37.503152 61.126538 33.373672 61.861328 27.369141 L 61.861328 14 L 50.146484 14 A 1.50015 1.50015 0 0 1 50.041016 13.998047 A 1.50015 1.50015 0 0 0 50.039062 13.998047 z M 45.267578 15.892578 A 1.6964287 1.6964287 0 0 1 46.964844 17.589844 A 1.6964287 1.6964287 0 0 1 45.267578 19.285156 A 1.6964287 1.6964287 0 0 1 43.572266 17.589844 A 1.6964287 1.6964287 0 0 1 45.267578 15.892578 z M 49.732422 19.464844 A 1.6964287 1.6964287 0 0 1 51.427734 21.160156 A 1.6964287 1.6964287 0 0 1 49.732422 22.857422 A 1.6964287 1.6964287 0 0 1 48.035156 21.160156 A 1.6964287 1.6964287 0 0 1 49.732422 19.464844 z M 43.302734 21.785156 A 1.6964287 1.6964287 0 0 1 45 23.482422 A 1.6964287 1.6964287 0 0 1 43.302734 25.177734 A 1.6964287 1.6964287 0 0 1 41.607422 23.482422 A 1.6964287 1.6964287 0 0 1 43.302734 21.785156 z M 46.160156 27.5 A 1.6964287 1.6964287 0 0 1 47.857422 29.197266 A 1.6964287 1.6964287 0 0 1 46.160156 30.892578 A 1.6964287 1.6964287 0 0 1 44.464844 29.197266 A 1.6964287 1.6964287 0 0 1 46.160156 27.5 z M 47.947266 34.107422 A 1.6964287 1.6964287 0 0 1 49.642578 35.802734 A 1.6964287 1.6964287 0 0 1 47.947266 37.5 A 1.6964287 1.6964287 0 0 1 46.25 35.802734 A 1.6964287 1.6964287 0 0 1 47.947266 34.107422 z "
       transform="translate(-751.15625,-30.244145)"
       id="circle4556" />
  </g>
</svg>
