<?xml version="1.0" encoding="UTF-8" standalone="no"?>
<!-- Created with Inkscape (http://www.inkscape.org/) -->

<svg
   xmlns:dc="http://purl.org/dc/elements/1.1/"
   xmlns:cc="http://creativecommons.org/ns#"
   xmlns:rdf="http://www.w3.org/1999/02/22-rdf-syntax-ns#"
   xmlns:svg="http://www.w3.org/2000/svg"
   xmlns="http://www.w3.org/2000/svg"
   xmlns:sodipodi="http://sodipodi.sourceforge.net/DTD/sodipodi-0.dtd"
   xmlns:inkscape="http://www.inkscape.org/namespaces/inkscape"
   width="28.222221mm"
   height="28.222223mm"
   viewBox="0 0 99.999997 100"
   id="svg2"
   version="1.1"
   inkscape:version="0.91 r13725"
   sodipodi:docname="icon_party.svg">
  <defs
     id="defs4" />
  <sodipodi:namedview
     id="base"
     pagecolor="#ffffff"
     bordercolor="#666666"
     borderopacity="1.0"
     inkscape:pageopacity="0.0"
     inkscape:pageshadow="2"
     inkscape:zoom="3.959798"
     inkscape:cx="-12.271216"
     inkscape:cy="34.667636"
     inkscape:document-units="px"
     inkscape:current-layer="layer1"
     showgrid="false"
     showguides="true"
     inkscape:guide-bbox="true"
     inkscape:window-width="1920"
     inkscape:window-height="1018"
     inkscape:window-x="-8"
     inkscape:window-y="-8"
     inkscape:window-maximized="1"
     fit-margin-top="0"
     fit-margin-left="0"
     fit-margin-right="0"
     fit-margin-bottom="0" />
  <metadata
     id="metadata7">
    <rdf:RDF>
      <cc:Work
         rdf:about="">
        <dc:format>image/svg+xml</dc:format>
        <dc:type
           rdf:resource="http://purl.org/dc/dcmitype/StillImage" />
        <dc:title />
      </cc:Work>
    </rdf:RDF>
  </metadata>
  <g
     inkscape:label="Ebene 1"
     inkscape:groupmode="layer"
     id="layer1"
     transform="translate(745.45898,137.94336)">
    <path
       style="fill:#387025;fill-opacity:1;stroke:none;stroke-width:3;stroke-linecap:round;stroke-miterlimit:4;stroke-dasharray:none;stroke-dashoffset:0;stroke-opacity:1"
       d="m -695.45898,-137.94336 a 50,50 0 0 1 50,50.000001 50,50 0 0 1 -50,50 50,50 0 0 1 -50,-50 50,50 0 0 1 50,-50.000001 z m 24.73633,15.54883 a 1.50015,1.50015 0 0 0 -0.44726,0.0469 l -39.31446,9.50391 a 1.50015,1.50015 0 0 0 -1.02148,2.10352 l 0,11.753902 a 1.50015,1.50015 0 0 0 0,1.28125 l 0,29.222656 c -0.13677,-0.111927 -0.2688,-0.228914 -0.41211,-0.333984 -2.05301,-1.505181 -4.77949,-2.378908 -7.76172,-2.378906 -2.98222,0 -5.71066,0.873725 -7.76367,2.378906 -2.05301,1.505181 -3.46094,3.728574 -3.46094,6.25 0,2.521425 1.40793,4.744819 3.46094,6.25 2.05301,1.50518 4.78145,2.378905 7.76367,2.378906 2.98223,10e-7 5.70871,-0.873726 7.76172,-2.378906 2.05301,-1.505181 3.46094,-3.728573 3.46094,-6.25 0,-0.238533 -0.0243,-0.472236 -0.0488,-0.705078 l 0,-33.929688 36.14062,-8.736328 0,28.695312 c -0.10107,-0.08319 -0.19607,-0.172606 -0.30078,-0.251953 -1.99519,-1.511874 -4.65356,-2.390624 -7.55859,-2.390625 -2.90503,10e-7 -5.5634,0.878751 -7.55859,2.390625 -1.9952,1.511875 -3.34961,3.73285 -3.34961,6.236329 0,2.503477 1.35441,4.726406 3.34961,6.238281 1.99519,1.511875 4.65356,2.390624 7.55859,2.390625 2.90503,-1e-6 5.5634,-0.87875 7.55859,-2.390625 1.99519,-1.511875 3.34961,-3.734804 3.34961,-6.238281 0,-0.244789 -0.0236,-0.483668 -0.0488,-0.722657 l 0,-35.419921 a 1.50015,1.50015 0 0 0 0,-0.92578 l 0,-11.59375 a 1.50015,1.50015 0 0 0 -0.0488,-0.39844 1.50015,1.50015 0 0 0 -1.3086,-2.07617 z m -1.64258,3.41992 0,9.95117 -36.14062,8.73633 0,-9.94922 36.14062,-8.73828 z m -7.85937,42.089844 c 2.29074,10e-7 4.33634,0.714951 5.74609,1.783204 1.21044,0.91721 1.93224,2.036644 2.11328,3.242187 l 0,0.857422 a 1.50015,1.50015 0 0 0 0.0156,0.240234 c -0.15352,1.246223 -0.88311,2.405603 -2.12891,3.34961 -1.40975,1.068253 -3.45535,1.783203 -5.74609,1.783203 -2.29074,0 -4.33634,-0.71495 -5.74609,-1.783203 -1.40976,-1.068253 -2.16211,-2.412038 -2.16211,-3.845703 0,-1.433667 0.75235,-2.775498 2.16211,-3.84375 1.40975,-1.068253 3.45535,-1.783203 5.74609,-1.783204 z m -39.45508,8.689454 c 2.38789,-2e-6 4.52209,0.721929 5.98828,1.796874 1.25941,0.923346 2.00063,2.043522 2.18555,3.238282 l 0,0.849609 a 1.50015,1.50015 0 0 0 0.0156,0.238281 c -0.15803,1.231828 -0.90672,2.386903 -2.20117,3.335938 -1.46619,1.074947 -3.60039,1.798829 -5.98828,1.798828 -2.38788,-10e-7 -4.52209,-0.723881 -5.98828,-1.798828 -1.46619,-1.074947 -2.23633,-2.414362 -2.23633,-3.830078 0,-1.415717 0.77014,-2.757082 2.23633,-3.832032 1.46619,-1.074946 3.6004,-1.796874 5.98828,-1.796874 z"
       id="circle4602"
       inkscape:connector-curvature="0" />
  </g>
</svg>
