<?xml version="1.0" encoding="UTF-8" standalone="no"?>
<!-- Created with Inkscape (http://www.inkscape.org/) -->

<svg
   xmlns:dc="http://purl.org/dc/elements/1.1/"
   xmlns:cc="http://creativecommons.org/ns#"
   xmlns:rdf="http://www.w3.org/1999/02/22-rdf-syntax-ns#"
   xmlns:svg="http://www.w3.org/2000/svg"
   xmlns="http://www.w3.org/2000/svg"
   xmlns:sodipodi="http://sodipodi.sourceforge.net/DTD/sodipodi-0.dtd"
   xmlns:inkscape="http://www.inkscape.org/namespaces/inkscape"
   width="28.222221mm"
   height="28.222221mm"
   viewBox="0 0 99.999997 99.999997"
   id="svg2"
   version="1.1"
   inkscape:version="0.91 r13725"
   sodipodi:docname="icon_church.svg">
  <defs
     id="defs4" />
  <sodipodi:namedview
     id="base"
     pagecolor="#ffffff"
     bordercolor="#666666"
     borderopacity="1.0"
     inkscape:pageopacity="0.0"
     inkscape:pageshadow="2"
     inkscape:zoom="2.8"
     inkscape:cx="19.353011"
     inkscape:cy="87.616726"
     inkscape:document-units="px"
     inkscape:current-layer="layer1"
     showgrid="false"
     showguides="true"
     inkscape:guide-bbox="true"
     inkscape:window-width="1920"
     inkscape:window-height="1018"
     inkscape:window-x="-8"
     inkscape:window-y="-8"
     inkscape:window-maximized="1"
     fit-margin-top="0"
     fit-margin-left="0"
     fit-margin-right="0"
     fit-margin-bottom="0" />
  <metadata
     id="metadata7">
    <rdf:RDF>
      <cc:Work
         rdf:about="">
        <dc:format>image/svg+xml</dc:format>
        <dc:type
           rdf:resource="http://purl.org/dc/dcmitype/StillImage" />
        <dc:title />
      </cc:Work>
    </rdf:RDF>
  </metadata>
  <g
     inkscape:label="Ebene 1"
     inkscape:groupmode="layer"
     id="layer1"
     transform="translate(861.42773,467.63867)">
    <path
       style="fill:#387025;fill-opacity:1;stroke:none;stroke-width:3;stroke-linecap:round;stroke-miterlimit:4;stroke-dasharray:none;stroke-dashoffset:0;stroke-opacity:1"
       d="m -811.42773,-467.63867 a 50,50 0 0 0 -50,50 50,50 0 0 0 50,50 50,50 0 0 0 50,-50 50,50 0 0 0 -50,-50 z m -20.77149,10.4707 a 1.50015,1.50015 0 0 1 1.42969,1.11914 l 8.04883,30.75977 33.77734,0 a 1.50015,1.50015 0 0 1 1.06055,0.43945 l 9.19922,9.19922 a 1.50015,1.50015 0 0 1 0.60156,1.46094 l 0,24.96289 a 1.50015,1.50015 0 0 1 -1.5,1.5 l -60.8418,0 a 1.50015,1.50015 0 0 1 -1.5,-1.5 l 0,-24.96875 a 1.50015,1.50015 0 0 1 0.0762,-0.76953 l 8.15625,-40.99805 a 1.50015,1.50015 0 0 1 1.49219,-1.20508 z m 0.17774,8.18555 -6.57422,33.04687 55.38476,0 -6.35351,-6.35351 -34.31446,0 a 1.50015,1.50015 0 0 1 -1.45117,-1.11914 l -6.6914,-25.57422 z m -6.90235,36.04687 0,22.20899 57.8418,0 0,-22.20899 -57.8418,0 z m 12.89258,0.6211 c 0.61279,0.0223 1.79354,0.19891 2.87305,1.14648 1.53614,1.34841 2.72078,3.94502 2.76758,8.73828 l 0,0.006 0,9.72266 -10.72852,0 -1.5,0 0,-9.85547 c 0,-4.64814 1.3212,-7.25868 2.94141,-8.58203 1.45044,-1.18472 2.91879,-1.17892 3.24804,-1.16992 0.0534,-0.004 0.19418,-0.0133 0.39844,-0.006 z m 16,0 c 0.61279,0.0223 1.79354,0.19891 2.87305,1.14648 1.53614,1.34841 2.72078,3.94502 2.76758,8.73828 l 0,0.006 0,9.72266 -10.72852,0 -1.5,0 0,-9.85547 c 0,-4.64814 1.3212,-7.25868 2.94141,-8.58203 1.45044,-1.18472 2.91879,-1.17892 3.24804,-1.16992 0.0534,-0.004 0.19418,-0.0133 0.39844,-0.006 z m 16,0 c 0.61279,0.0223 1.79354,0.19891 2.87305,1.14648 1.53614,1.34841 2.72078,3.94502 2.76758,8.73828 l 0,0.006 0,9.72266 -10.72852,0 -1.5,0 0,-9.85547 c 0,-4.64814 1.3212,-7.25868 2.94141,-8.58203 1.45044,-1.18472 2.91879,-1.17892 3.24804,-1.16992 0.0534,-0.004 0.19418,-0.0133 0.39844,-0.006 z m -32.01563,2.94726 c -0.0388,0.004 -0.0586,0.0137 -0.0586,0.0137 l -0.18945,0.0293 -0.19141,-0.0176 c 0,0 -0.52317,-0.10141 -1.29297,0.52735 -0.76979,0.62875 -1.83984,2.15595 -1.83984,6.25781 l 0,6.85547 6.22852,0 0,-6.69922 c -0.0422,-4.31389 -1.08019,-5.92915 -1.7461,-6.51367 -0.49943,-0.4384 -0.79376,-0.46653 -0.91016,-0.45313 z m 16,0 c -0.0388,0.004 -0.0586,0.0137 -0.0586,0.0137 l -0.18945,0.0293 -0.19141,-0.0176 c 0,0 -0.52317,-0.10141 -1.29297,0.52735 -0.76979,0.62875 -1.83984,2.15595 -1.83984,6.25781 l 0,6.85547 6.22852,0 0,-6.69922 c -0.0422,-4.31389 -1.08019,-5.92915 -1.7461,-6.51367 -0.49943,-0.4384 -0.79376,-0.46653 -0.91016,-0.45313 z m 16,0 c -0.0388,0.004 -0.0586,0.0137 -0.0586,0.0137 l -0.18945,0.0293 -0.19141,-0.0176 c 0,0 -0.52317,-0.10141 -1.29297,0.52735 -0.76979,0.62875 -1.83984,2.15595 -1.83984,6.25781 l 0,6.85547 6.22852,0 0,-6.69922 c -0.0422,-4.31389 -1.08019,-5.92915 -1.7461,-6.51367 -0.49943,-0.4384 -0.79376,-0.46653 -0.91016,-0.45313 z"
       id="circle4622"
       inkscape:connector-curvature="0" />
  </g>
</svg>
