<?xml version="1.0" encoding="UTF-8" standalone="no"?>
<!-- Created with Inkscape (http://www.inkscape.org/) -->

<svg
   xmlns:dc="http://purl.org/dc/elements/1.1/"
   xmlns:cc="http://creativecommons.org/ns#"
   xmlns:rdf="http://www.w3.org/1999/02/22-rdf-syntax-ns#"
   xmlns:svg="http://www.w3.org/2000/svg"
   xmlns="http://www.w3.org/2000/svg"
   xmlns:sodipodi="http://sodipodi.sourceforge.net/DTD/sodipodi-0.dtd"
   xmlns:inkscape="http://www.inkscape.org/namespaces/inkscape"
   width="28.222221mm"
   height="28.222221mm"
   viewBox="0 0 99.999997 99.999997"
   id="svg2"
   version="1.1"
   inkscape:version="0.91 r13725"
   sodipodi:docname="icon_cup.svg">
  <defs
     id="defs4" />
  <sodipodi:namedview
     id="base"
     pagecolor="#ffffff"
     bordercolor="#666666"
     borderopacity="1.0"
     inkscape:pageopacity="0.0"
     inkscape:pageshadow="2"
     inkscape:zoom="2.8"
     inkscape:cx="18.433278"
     inkscape:cy="65.354187"
     inkscape:document-units="px"
     inkscape:current-layer="layer1"
     showgrid="false"
     showguides="true"
     inkscape:guide-bbox="true"
     inkscape:window-width="1920"
     inkscape:window-height="1018"
     inkscape:window-x="-8"
     inkscape:window-y="-8"
     inkscape:window-maximized="1"
     fit-margin-top="0"
     fit-margin-left="0"
     fit-margin-right="0"
     fit-margin-bottom="0" />
  <metadata
     id="metadata7">
    <rdf:RDF>
      <cc:Work
         rdf:about="">
        <dc:format>image/svg+xml</dc:format>
        <dc:type
           rdf:resource="http://purl.org/dc/dcmitype/StillImage" />
        <dc:title />
      </cc:Work>
    </rdf:RDF>
  </metadata>
  <g
     inkscape:label="Ebene 1"
     inkscape:groupmode="layer"
     id="layer1"
     transform="translate(869.28516,354.78125)">
    <path
       style="fill:#387025;fill-opacity:1;stroke:none;stroke-width:3;stroke-linecap:round;stroke-miterlimit:4;stroke-dasharray:none;stroke-dashoffset:0;stroke-opacity:1"
       d="m -819.28516,-354.78125 a 50,50 0 0 0 -50,50 50,50 0 0 0 50,50 50,50 0 0 0 50,-50 50,50 0 0 0 -50,-50 z m -24.64257,20.82227 26.67773,0 19,0 0,5.21679 c 1.6513,-1.01405 3.14515,-1.5912 4.50977,-1.73242 0.66854,-0.0692 1.3068,-0.0356 1.91992,0.0957 2.45248,0.52509 3.88969,2.60141 4.66406,4.69727 1.52978,4.1404 1.14867,9.16674 1.13867,9.29102 10e-4,0.0548 0.11857,4.85009 -1.55469,8.75 -0.84141,1.96108 -2.2915,3.88538 -4.64843,4.36718 -1.78242,0.36436 -3.76756,-0.13324 -6.0293,-1.55078 l 0,8.79688 -1.5,0 c -4.65465,0 -6.56426,2.06566 -7.66602,4.23046 -1.10179,2.16483 -1.12109,4.3711 -1.12109,4.3711 l 0.002,1.5 -8.71484,0 -16.39258,0 0,-1.5 c 0,0 -0.0194,-2.20629 -1.12109,-4.3711 -1.10174,-2.1648 -3.00936,-4.23046 -7.66406,-4.23046 l -1.5,0 0,-10.38086 a 1.50015,1.50015 0 0 1 0,-1.03516 l 0,-18.73242 a 1.50015,1.50015 0 0 1 0,-1.03516 l 0,-6.74804 z m 3,3 0,2.76562 39.67773,0 0,-2.76562 -16,0 -23.67773,0 z m 48.01757,3.45898 c -1.096,-0.0349 -2.8442,0.52785 -5.33984,2.39844 l 0,16.59179 c 2.67207,2.11302 4.42439,2.50238 5.42969,2.29688 1.05192,-0.21503 1.85048,-1.11571 2.49219,-2.61133 1.28339,-2.99123 1.3125,-7.57031 1.3125,-7.57031 l 0,-0.0547 0.004,-0.0547 c 0,0 0.23173,-4.92126 -0.95703,-8.13867 -0.59438,-1.6087 -1.37135,-2.56526 -2.48047,-2.80273 -0.13864,-0.0297 -0.29252,-0.0493 -0.46094,-0.0547 z m -48.01757,2.30664 0,16.76758 39.67773,0 0,-16.76758 -39.67773,0 z m 0,19.76758 0,6.60156 c 4.65469,0.50551 7.51464,3.06794 8.83789,5.66797 0.85101,1.67215 1.15825,3.13102 1.30273,4.23047 l 13.53711,0 5.85938,0 c 0.14449,-1.09945 0.44977,-2.55835 1.30078,-4.23047 1.32332,-2.60017 4.18471,-5.16267 8.83984,-5.66797 l 0,-6.60156 -39.67773,0 z m -1.66602,12.24023 a 1.50015,1.50015 0 0 1 0.25195,2.98243 c -5.86127,1.00119 -9.90311,2.4364 -11.48632,3.61132 -0.79166,0.58747 -0.81565,0.87033 -0.80665,0.95313 0.009,0.0828 0.2279,0.58466 1.29102,1.23828 2.12625,1.30724 6.69768,2.64489 12.5332,3.53516 5.83552,0.89026 12.98116,1.40715 20.54297,1.41015 7.56181,0.003 14.71699,-0.51014 20.56641,-1.39648 5.84941,-0.88634 10.44059,-2.2171 12.59375,-3.52735 1.07658,-0.65512 1.31146,-1.17161 1.32226,-1.25781 0.0108,-0.0862 -0.003,-0.35091 -0.78125,-0.93555 -1.55667,-1.16927 -5.57832,-2.61207 -11.42382,-3.61718 a 1.50015,1.50015 0 1 1 0.50976,-2.95508 c 6.05855,1.04174 10.27608,2.34198 12.71485,4.17383 1.21937,0.91592 2.14279,2.21523 1.95703,3.70508 -0.18577,1.48982 -1.28135,2.56145 -2.74024,3.44921 -2.91777,1.77553 -7.66529,3.01675 -13.70312,3.93164 -6.03784,0.91489 -13.31837,1.43269 -21.01563,1.42969 -7.69726,-0.003 -14.96942,-0.52423 -20.99414,-1.44336 -6.02471,-0.91913 -10.75581,-2.1633 -13.6543,-3.94531 -1.44924,-0.89101 -2.53732,-1.97531 -2.70117,-3.46875 -0.16385,-1.49344 0.77341,-2.77578 2.00196,-3.6875 2.45709,-1.82343 6.69618,-3.12272 12.76953,-4.16016 a 1.50015,1.50015 0 0 1 0.25195,-0.0254 z"
       id="circle4574"
       inkscape:connector-curvature="0" />
  </g>
</svg>
