<?xml version="1.0" encoding="UTF-8" standalone="no"?>
<!-- Created with Inkscape (http://www.inkscape.org/) -->

<svg
   xmlns:dc="http://purl.org/dc/elements/1.1/"
   xmlns:cc="http://creativecommons.org/ns#"
   xmlns:rdf="http://www.w3.org/1999/02/22-rdf-syntax-ns#"
   xmlns:svg="http://www.w3.org/2000/svg"
   xmlns="http://www.w3.org/2000/svg"
   xmlns:sodipodi="http://sodipodi.sourceforge.net/DTD/sodipodi-0.dtd"
   xmlns:inkscape="http://www.inkscape.org/namespaces/inkscape"
   width="28.222221mm"
   height="28.222221mm"
   viewBox="0 0 99.999997 99.999997"
   id="svg2"
   version="1.1"
   inkscape:version="0.91 r13725"
   sodipodi:docname="icon_dinner.svg">
  <defs
     id="defs4" />
  <sodipodi:namedview
     id="base"
     pagecolor="#ffffff"
     bordercolor="#666666"
     borderopacity="1.0"
     inkscape:pageopacity="0.0"
     inkscape:pageshadow="2"
     inkscape:zoom="3.959798"
     inkscape:cx="25.904295"
     inkscape:cy="37.423604"
     inkscape:document-units="px"
     inkscape:current-layer="layer1"
     showgrid="false"
     showguides="true"
     inkscape:guide-bbox="true"
     inkscape:window-width="1920"
     inkscape:window-height="1018"
     inkscape:window-x="-8"
     inkscape:window-y="-8"
     inkscape:window-maximized="1"
     fit-margin-top="0"
     fit-margin-left="0"
     fit-margin-right="0"
     fit-margin-bottom="0" />
  <metadata
     id="metadata7">
    <rdf:RDF>
      <cc:Work
         rdf:about="">
        <dc:format>image/svg+xml</dc:format>
        <dc:type
           rdf:resource="http://purl.org/dc/dcmitype/StillImage" />
        <dc:title />
      </cc:Work>
    </rdf:RDF>
  </metadata>
  <g
     inkscape:label="Ebene 1"
     inkscape:groupmode="layer"
     id="layer1"
     transform="translate(740,243.35156)">
    <path
       style="fill:#387025;fill-opacity:1;stroke:none;stroke-width:3;stroke-linecap:round;stroke-miterlimit:4;stroke-dasharray:none;stroke-dashoffset:0;stroke-opacity:1"
       d="m -690,-243.35156 a 50,50 0 0 0 -50,50 50,50 0 0 0 50,50 50,50 0 0 0 50,-50 50,50 0 0 0 -50,-50 z m 29.82227,20.43945 2.70703,3.66992 c 0,0 1.86787,2.5752 2.75,7.06641 0.86899,4.42433 0.81612,10.84505 -2.45703,18.82617 l 0,20.03125 a 1.50015,1.50015 0 1 1 -3,0 l 0,-20.09961 a 1.50015,1.50015 0 0 1 0,-0.28515 l 0,-29.20899 z M -690,-220.20898 c 14.7164,0 26.67773,11.96133 26.67773,26.67773 0,14.7164 -11.96133,26.67969 -26.67773,26.67969 -14.7164,0 -26.67773,-11.96329 -26.67773,-26.67969 0,-14.7164 11.96133,-26.67773 26.67773,-26.67773 z m -33.50391,0.33593 a 1.50015,1.50015 0 0 1 1.52149,1.52149 l 0,12.06445 c 0.23009,0.0544 0.55849,0.0385 0.94922,-0.27344 0.75145,-0.59989 2.27372,-3.40306 1.94922,-11.70117 a 1.50015,1.50015 0 0 1 1.41796,-1.57812 1.50015,1.50015 0 0 1 1.58008,1.46093 c 0.3384,8.65351 -0.8998,12.42468 -3.07617,14.16211 -0.95325,0.761 -1.96807,0.90423 -2.82031,0.83985 l 0,30.05859 a 1.50015,1.50015 0 1 1 -3,0 l 0,-30.03711 c -0.78265,0.005 -1.67371,-0.19232 -2.51172,-0.86133 -2.17637,-1.73743 -3.41652,-5.5086 -3.07813,-14.16211 a 1.50015,1.50015 0 0 1 1.53711,-1.46289 1.50015,1.50015 0 0 1 1.46094,1.58008 c -0.3245,8.29811 1.19972,11.10128 1.95117,11.70117 0.24025,0.1918 0.45467,0.26603 0.64063,0.28711 l 0,-12.07812 a 1.50015,1.50015 0 0 1 1.47851,-1.52149 z M -690,-217.20898 c -13.09508,0 -23.67773,10.58265 -23.67773,23.67773 0,13.09508 10.58265,23.67969 23.67773,23.67969 13.09508,0 23.67773,-10.58461 23.67773,-23.67969 0,-13.09508 -10.58265,-23.67773 -23.67773,-23.67773 z m 0,1.41992 c 12.27562,0 22.25977,9.98219 22.25977,22.25781 0,12.27562 -9.98415,22.25977 -22.25977,22.25977 -12.27562,0 -22.25977,-9.98415 -22.25977,-22.25977 0,-12.27562 9.98415,-22.25781 22.25977,-22.25781 z m 0,3 c -10.6543,0 -19.25977,8.60351 -19.25977,19.25781 0,10.6543 8.60547,19.25977 19.25977,19.25977 10.6543,0 19.25977,-8.60547 19.25977,-19.25977 0,-10.6543 -8.60547,-19.25781 -19.25977,-19.25781 z"
       id="circle4588"
       inkscape:connector-curvature="0" />
  </g>
</svg>
